<svg xmlns="http://www.w3.org/2000/svg" viewBox="0 0 800 700" fill="none">
  <defs>
    <linearGradient id="panel" x1="0" y1="0" x2="1" y2="1">
      <stop offset="0%" stop-color="#0ea5e9" stop-opacity="0.35"/>
      <stop offset="100%" stop-color="#8b5cf6" stop-opacity="0.12"/>
    </linearGradient>
  </defs>
  <rect x="120" y="80" width="280" height="160" rx="12" stroke="#38bdf8" stroke-width="1" fill="url(#panel)" opacity="0.5"/>
  <rect x="380" y="140" width="300" height="200" rx="14" stroke="#67e8f9" stroke-width="1.2" fill="url(#panel)" opacity="0.65"/>
  <rect x="200" y="320" width="360" height="220" rx="16" stroke="#a78bfa" stroke-width="1" fill="url(#panel)" opacity="0.4"/>
  <path d="M150 130 H360 M150 155 H320 M150 180 H280" stroke="#67e8f9" stroke-width="1" opacity="0.5"/>
  <path d="M420 190 H640 M420 220 H600 M420 250 H560" stroke="#c4b5fd" stroke-width="1" opacity="0.45"/>
  <rect x="420" y="360" width="120" height="80" rx="6" stroke="#22d3ee" stroke-width="0.75" opacity="0.35"/>
  <rect x="560" y="360" width="120" height="80" rx="6" stroke="#22d3ee" stroke-width="0.75" opacity="0.35"/>
  <polyline points="240,500 300,440 360,470 420,400 480,430 540,380" stroke="#38bdf8" stroke-width="1.5" fill="none" opacity="0.6"/>
  <circle cx="300" cy="440" r="4" fill="#22d3ee" opacity="0.8"/>
  <circle cx="420" cy="400" r="4" fill="#a78bfa" opacity="0.8"/>
  <circle cx="540" cy="380" r="4" fill="#22d3ee" opacity="0.8"/>
</svg>
