<svg xmlns="http://www.w3.org/2000/svg" viewBox="0 0 900 900" fill="none">
  <defs>
    <radialGradient id="glow" cx="50%" cy="45%" r="55%">
      <stop offset="0%" stop-color="#22d3ee" stop-opacity="0.45"/>
      <stop offset="55%" stop-color="#6366f1" stop-opacity="0.15"/>
      <stop offset="100%" stop-color="#030712" stop-opacity="0"/>
    </radialGradient>
    <linearGradient id="line" x1="0%" y1="0%" x2="100%" y2="100%">
      <stop offset="0%" stop-color="#67e8f9"/>
      <stop offset="100%" stop-color="#a78bfa"/>
    </linearGradient>
  </defs>
  <rect width="900" height="900" fill="url(#glow)"/>
  <g stroke="url(#line)" stroke-width="0.75" opacity="0.55">
    <line x1="450" y1="200" x2="320" y2="310"/><line x1="450" y1="200" x2="580" y2="300"/>
    <line x1="450" y1="200" x2="450" y2="380"/><line x1="320" y1="310" x2="250" y2="450"/>
    <line x1="580" y1="300" x2="650" y2="420"/><line x1="450" y1="380" x2="350" y2="520"/>
    <line x1="450" y1="380" x2="560" y2="510"/><line x1="350" y1="520" x2="280" y2="640"/>
    <line x1="560" y1="510" x2="620" y2="630"/><line x1="280" y1="640" x2="450" y2="700"/>
    <line x1="620" y1="630" x2="450" y2="700"/><line x1="250" y1="450" x2="350" y2="520"/>
    <line x1="650" y1="420" x2="560" y2="510"/><line x1="320" y1="310" x2="450" y2="380"/>
    <line x1="580" y1="300" x2="450" y2="380"/>
  </g>
  <g fill="#22d3ee">
    <circle cx="450" cy="200" r="6" opacity="0.9"/><circle cx="320" cy="310" r="4" opacity="0.7"/>
    <circle cx="580" cy="300" r="4" opacity="0.7"/><circle cx="450" cy="380" r="7" opacity="0.95"/>
    <circle cx="250" cy="450" r="3.5" opacity="0.6"/><circle cx="650" cy="420" r="3.5" opacity="0.6"/>
    <circle cx="350" cy="520" r="4" opacity="0.75"/><circle cx="560" cy="510" r="4" opacity="0.75"/>
    <circle cx="280" cy="640" r="3" opacity="0.55"/><circle cx="620" cy="630" r="3" opacity="0.55"/>
    <circle cx="450" cy="700" r="5" opacity="0.85"/>
  </g>
  <circle cx="450" cy="420" r="120" stroke="#38bdf8" stroke-width="1" opacity="0.2" stroke-dasharray="6 10"/>
  <circle cx="450" cy="420" r="180" stroke="#a78bfa" stroke-width="0.75" opacity="0.12" stroke-dasharray="4 14"/>
</svg>
